<svg xmlns="http://www.w3.org/2000/svg" width="128" height="128" viewBox="0 0 128 128">
  <title>MORTGAGE</title>
  <g>
    <path d="M57.185,82.86,61.943,87.8H82.8a7.1,7.1,0,0,1,7.1,7.1c0,.169-.006.337-.018.5l14.972-14.972v-41.4L73.6,18.289,42.344,39.028V77.946h3.282A16.052,16.052,0,0,1,57.185,82.86Z" fill="#dbedff"/>
    <path d="M27.112,77.946H45.626A16.052,16.052,0,0,1,57.185,82.86L61.943,87.8H82.8a7.1,7.1,0,0,1,7.1,7.1h0c0,.17-.006.339-.018.506h0l18.089-18.088a7.1,7.1,0,0,1,10.039,0h0a7.1,7.1,0,0,1,0,10.039L90.735,114.628a10.242,10.242,0,0,1-7.242,3H27.112Z" fill="#fcd0a3"/>
    <rect x="7.913" y="73.88" width="19.199" height="47.813" fill="#64d465"/>
    <polygon points="117.051 35.138 73.599 6.307 30.148 35.138 35.668 43.458 73.599 18.289 111.531 43.458 117.051 35.138" fill="#f87c68"/>
    <circle cx="73.6" cy="57.034" r="16.6" fill="#f4dd45"/>
    <path d="M74.961,67.033v1.815H72.38v-1.9a11.632,11.632,0,0,1-6.61-3.035l2.043-2.525a9.691,9.691,0,0,0,4.567,2.439V58.3c-3.489-.908-5.844-2.156-5.844-5.5,0-3.063,2.355-5.418,5.844-5.843V45.219h2.581v1.759a10.558,10.558,0,0,1,5.957,2.638l-1.929,2.61A9.268,9.268,0,0,0,74.961,50.1v5.333c3.887.88,6.468,2.213,6.468,5.673C81.429,64.366,79.074,66.749,74.961,67.033ZM72.38,54.75V50.042a2.678,2.678,0,0,0-2.27,2.439C70.11,53.616,70.849,54.212,72.38,54.75Zm5.5,6.694c0-1.3-.908-1.9-2.922-2.5V64C76.891,63.771,77.883,62.693,77.883,61.444Z" fill="#fcc101"/>
    <path d="M89.88,95.4l3.18-3.17a10.8,10.8,0,0,1,.34,2.67,10.612,10.612,0,0,1-10.6,10.6H57.48a1.75,1.75,0,1,1,0-3.5H82.8a7.108,7.108,0,0,0,7.082-6.6Z" fill="#feb983"/>
  </g>
</svg>
